<svg width="17" height="20" viewBox="0 0 17 20" fill="none" xmlns="http://www.w3.org/2000/svg">
<path d="M8.7 7.41855L11.55 12.1303L10.6 14.0351H6.6L5.45 12.1303L8.5 7.56892L8.7 7.41855ZM5.55 18.2456H11.55L15.05 12.6316L8.5 2.85714L2.05 12.5815L5.55 18.2456ZM16.75 18.4962V20H0.25V18.5965L1.95 15.6391L0 12.6316L8.5 0L17 12.6316L15.25 15.3383L16.75 18.4962Z" fill="white"/>
<path d="M8.50005 7.56908L5.45005 12.1305L6.60005 14.0352H10.6L11.55 12.1305L8.70005 7.4187L8.50005 7.56908ZM2.05005 12.5816L8.50005 2.8573L15.05 12.6317L11.55 18.2458H5.55005L2.05005 12.5816Z" fill="white" fill-opacity="0.298039"/>
</svg>
