<svg width="18" height="18" viewBox="0 0 18 18" fill="none" xmlns="http://www.w3.org/2000/svg">
    <g clip-path="url(#clip0)">
        <path d="M13.2406 5.41686H13.2406C12.2424 5.25574 11.245 5.50901 10.4325 6.12983C9.58914 6.77427 8.41095 6.77427 7.56752 6.12983C6.91478 5.63103 6.14272 5.36951 5.34668 5.36951C5.15191 5.36951 4.95571 5.38515 4.75947 5.41683C2.71465 5.7467 1.31311 7.73238 1.63525 9.84326C2.22123 13.6831 3.33181 16.2963 4.847 17.4004C5.55554 17.9166 6.33854 18.0967 7.24096 17.9512C7.794 17.862 8.23085 17.6367 8.57657 17.2624C8.6857 17.1443 8.83919 17.0771 8.99999 17.0771C9.1608 17.0771 9.31433 17.1443 9.42341 17.2624C9.7691 17.6367 10.206 17.862 10.759 17.9512C11.6615 18.0969 12.4445 17.9167 13.153 17.4004C14.6682 16.2963 15.7788 13.6831 16.3647 9.84326C16.6869 7.73242 15.2854 5.74673 13.2406 5.41686Z" fill="#49BB55"/>
        <path d="M13.2554 1.73662C13.1406 1.43973 12.807 1.29196 12.5099 1.40682C12.419 1.44194 10.991 2.00975 9.86316 3.33531C9.82091 3.12666 9.76188 2.9166 9.68197 2.7084C9.01087 0.960196 7.16736 0.0896255 7.08921 0.0533795C6.94777 -0.0121515 6.78581 -0.0175304 6.6403 0.0382624C6.49479 0.0941254 6.3781 0.20652 6.31683 0.349886C6.28297 0.429128 5.49551 2.30966 6.16657 4.05787C6.22718 4.21569 6.29798 4.36566 6.3755 4.50921C7.0517 4.6589 7.69484 4.95706 8.2675 5.39461C8.69872 5.7242 9.30123 5.7242 9.73253 5.39461C9.83395 5.31713 9.93759 5.24404 10.0432 5.17534C10.3431 4.51669 10.8117 3.9208 11.4462 3.39564C12.2023 2.76975 12.9198 2.48446 12.9256 2.48217C13.2225 2.36735 13.3702 2.03358 13.2554 1.73662Z" fill="#49BB55"/>
    </g>
    <defs>
        <clipPath id="clip0">
            <rect width="18" height="18" fill="white"/>
        </clipPath>
    </defs>
</svg>
